<svg width="345.2" height="79.2" viewBox="0 0 345.2 79.2" xmlns="http://www.w3.org/2000/svg"><g id="svgGroup" stroke-linecap="round" fill-rule="evenodd" font-size="9pt" stroke="none" fill="#FFF" style="stroke:none;fill:#FFF"><path d="M 5.4 66.4 L 0 66.4 L 0 0.9 L 5.3 0.9 L 19.4 37.6 L 20.9 37.6 L 35 0.9 L 40.3 0.9 L 40.3 66.4 L 34.9 66.4 L 34.9 15.6 L 34.5 15.6 L 24 42.7 L 16.3 42.7 L 5.8 15.5 L 5.4 15.5 L 5.4 66.4 Z M 69.1 23.9 L 57.5 23.9 L 57.5 18.9 L 74.4 18.9 L 74.4 61.4 L 86 61.4 L 86 66.4 L 56.7 66.4 L 56.7 61.4 L 69.1 61.4 L 69.1 23.9 Z M 131.1 18.9 L 137.1 18.9 A 192.108 192.108 0 0 1 123.242 38.369 A 212.899 212.899 0 0 1 121 41.1 A 336.448 336.448 0 0 1 124.369 45.981 Q 128.12 51.511 133.014 59.089 A 1283.501 1283.501 0 0 1 137.7 66.4 L 131.7 66.4 Q 125.575 56.447 120.329 48.78 A 270.718 270.718 0 0 0 117.2 44.3 L 110.2 45.2 L 110.2 66.4 L 104.9 66.4 L 104.9 0 L 110.2 0 L 110.2 40.4 L 116.7 39.4 A 274.749 274.749 0 0 0 125.202 27.735 A 341.915 341.915 0 0 0 131.1 18.9 Z M 153 64.1 L 154.3 58.9 A 102.029 102.029 0 0 0 159.513 60.495 Q 164.264 61.8 167.653 62.106 A 21.723 21.723 0 0 0 169.6 62.2 Q 175 62.2 177.95 59.85 A 7.485 7.485 0 0 0 180.865 54.435 A 9.683 9.683 0 0 0 180.9 53.6 A 10.213 10.213 0 0 0 180.676 51.388 Q 180.371 50.012 179.648 48.999 A 5.585 5.585 0 0 0 178.55 47.85 Q 176.2 46 168.8 44.3 A 40.984 40.984 0 0 1 164.536 43.091 Q 162.407 42.351 160.708 41.437 A 16.602 16.602 0 0 1 157.7 39.4 Q 154.078 36.463 154.002 30.651 A 19.155 19.155 0 0 1 154 30.4 A 12.578 12.578 0 0 1 154.588 26.456 A 10.024 10.024 0 0 1 158.55 21.25 A 16.81 16.81 0 0 1 164.132 18.792 Q 166.925 18.1 170.3 18.1 A 37.593 37.593 0 0 1 178.166 18.977 Q 181.664 19.725 185.401 21.112 A 62.348 62.348 0 0 1 185.9 21.3 L 184.5 26 A 79.658 79.658 0 0 0 179.627 24.554 Q 174.965 23.343 171.58 23.215 A 20.705 20.705 0 0 0 170.8 23.2 A 24.343 24.343 0 0 0 167.624 23.394 Q 166.026 23.605 164.708 24.045 A 10.621 10.621 0 0 0 162.6 25 A 7.287 7.287 0 0 0 160.801 26.658 A 6.035 6.035 0 0 0 159.6 30.4 A 6.96 6.96 0 0 0 160.021 32.871 Q 160.653 34.55 162.238 35.691 A 7.706 7.706 0 0 0 162.25 35.7 Q 164.812 37.537 172 39.374 A 99.149 99.149 0 0 0 172.5 39.5 Q 179.238 41.185 182.518 43.695 A 11.159 11.159 0 0 1 183.3 44.35 A 9.046 9.046 0 0 1 185.675 48.065 Q 186.191 49.525 186.384 51.322 A 21.31 21.31 0 0 1 186.5 53.6 A 14.874 14.874 0 0 1 185.844 58.125 A 11.833 11.833 0 0 1 182.2 63.6 Q 178 67.3 170.2 67.3 A 44.809 44.809 0 0 1 162.067 66.512 Q 158.278 65.812 154.178 64.49 A 76.574 76.574 0 0 1 153 64.1 Z M 219.1 23.9 L 207.5 23.9 L 207.5 18.9 L 224.4 18.9 L 224.4 61.4 L 236 61.4 L 236 66.4 L 206.7 66.4 L 206.7 61.4 L 219.1 61.4 L 219.1 23.9 Z M 252.8 18.9 L 257.9 18.9 L 258.1 22.9 A 67.667 67.667 0 0 1 263.705 20.524 Q 269.337 18.452 273.584 18.31 A 18.48 18.48 0 0 1 274.2 18.3 A 14.967 14.967 0 0 1 278.613 18.919 A 11.624 11.624 0 0 1 284.25 22.7 Q 287.472 26.584 287.85 32.963 A 29.403 29.403 0 0 1 287.9 34.7 L 287.9 66.4 L 282.6 66.4 L 282.6 34.7 A 16.441 16.441 0 0 0 282.219 31.065 A 11.618 11.618 0 0 0 280.2 26.6 A 7.722 7.722 0 0 0 275.574 23.759 A 12.071 12.071 0 0 0 273 23.5 A 16.014 16.014 0 0 0 270.076 23.81 Q 267.013 24.387 262.66 26.035 A 101.016 101.016 0 0 0 258.1 27.9 L 258.1 66.4 L 252.8 66.4 L 252.8 18.9 Z M 345.2 79.2 L 300.2 79.2 L 295.2 74.9 L 340.2 74.9 L 340.2 60.0 L 345.2 60.0 L 345.2 74.9 L 345.2 79.2 Z M 345.2 19.2 L 345.2 0 L 170 0 L 180 5.7 L 340.2 5.7 L 340.2 19.2 Z" vector-effect="non-scaling-stroke"/></g></svg>